<svg xmlns="http://www.w3.org/2000/svg" viewBox="0 0 520 355" role="img" aria-label="Three strips remove increasingly long finite prefixes while preserving the infinite tail." style="font-family:system-ui,sans-serif;font-size:18px;fill:#18384e"><title>Three strips remove increasingly long finite prefixes while preserving the infinite tail.</title><text x="35" y="30" font-weight="650">The tail question survives finite changes</text><text x="32" y="95" >Start 1</text><rect x="118" y="66" width="34" height="36" rx="4" fill="#dcece7" stroke="#9baead"/><text x="135" y="91" text-anchor="middle" font-size="16">X1</text><rect x="160" y="66" width="34" height="36" rx="4" fill="#dcece7" stroke="#9baead"/><text x="177" y="91" text-anchor="middle" font-size="16">X2</text><rect x="202" y="66" width="34" height="36" rx="4" fill="#dcece7" stroke="#9baead"/><text x="219" y="91" text-anchor="middle" font-size="16">X3</text><rect x="244" y="66" width="34" height="36" rx="4" fill="#dcece7" stroke="#9baead"/><text x="261" y="91" text-anchor="middle" font-size="16">X4</text><rect x="286" y="66" width="34" height="36" rx="4" fill="#dcece7" stroke="#9baead"/><text x="303" y="91" text-anchor="middle" font-size="16">X5</text><rect x="328" y="66" width="34" height="36" rx="4" fill="#dcece7" stroke="#9baead"/><text x="345" y="91" text-anchor="middle" font-size="16">X6</text><rect x="370" y="66" width="34" height="36" rx="4" fill="#dcece7" stroke="#9baead"/><text x="387" y="91" text-anchor="middle" font-size="16">X7</text><rect x="412" y="66" width="34" height="36" rx="4" fill="#dcece7" stroke="#9baead"/><text x="429" y="91" text-anchor="middle" font-size="16">X8</text><text x="465" y="92" >…</text><text x="32" y="165" >Start 2</text><rect x="118" y="136" width="34" height="36" rx="4" fill="#e7e7e7" stroke="#9baead"/><text x="135" y="161" text-anchor="middle" font-size="16">X1</text><rect x="160" y="136" width="34" height="36" rx="4" fill="#dcece7" stroke="#9baead"/><text x="177" y="161" text-anchor="middle" font-size="16">X2</text><rect x="202" y="136" width="34" height="36" rx="4" fill="#dcece7" stroke="#9baead"/><text x="219" y="161" text-anchor="middle" font-size="16">X3</text><rect x="244" y="136" width="34" height="36" rx="4" fill="#dcece7" stroke="#9baead"/><text x="261" y="161" text-anchor="middle" font-size="16">X4</text><rect x="286" y="136" width="34" height="36" rx="4" fill="#dcece7" stroke="#9baead"/><text x="303" y="161" text-anchor="middle" font-size="16">X5</text><rect x="328" y="136" width="34" height="36" rx="4" fill="#dcece7" stroke="#9baead"/><text x="345" y="161" text-anchor="middle" font-size="16">X6</text><rect x="370" y="136" width="34" height="36" rx="4" fill="#dcece7" stroke="#9baead"/><text x="387" y="161" text-anchor="middle" font-size="16">X7</text><rect x="412" y="136" width="34" height="36" rx="4" fill="#dcece7" stroke="#9baead"/><text x="429" y="161" text-anchor="middle" font-size="16">X8</text><text x="465" y="162" >…</text><text x="32" y="235" >Start 3</text><rect x="118" y="206" width="34" height="36" rx="4" fill="#e7e7e7" stroke="#9baead"/><text x="135" y="231" text-anchor="middle" font-size="16">X1</text><rect x="160" y="206" width="34" height="36" rx="4" fill="#e7e7e7" stroke="#9baead"/><text x="177" y="231" text-anchor="middle" font-size="16">X2</text><rect x="202" y="206" width="34" height="36" rx="4" fill="#dcece7" stroke="#9baead"/><text x="219" y="231" text-anchor="middle" font-size="16">X3</text><rect x="244" y="206" width="34" height="36" rx="4" fill="#dcece7" stroke="#9baead"/><text x="261" y="231" text-anchor="middle" font-size="16">X4</text><rect x="286" y="206" width="34" height="36" rx="4" fill="#dcece7" stroke="#9baead"/><text x="303" y="231" text-anchor="middle" font-size="16">X5</text><rect x="328" y="206" width="34" height="36" rx="4" fill="#dcece7" stroke="#9baead"/><text x="345" y="231" text-anchor="middle" font-size="16">X6</text><rect x="370" y="206" width="34" height="36" rx="4" fill="#dcece7" stroke="#9baead"/><text x="387" y="231" text-anchor="middle" font-size="16">X7</text><rect x="412" y="206" width="34" height="36" rx="4" fill="#dcece7" stroke="#9baead"/><text x="429" y="231" text-anchor="middle" font-size="16">X8</text><text x="465" y="232" >…</text><text x="35" y="319" font-size="16">Discard a finite prefix; ask the same limiting question.</text></svg>
