<svg xmlns="http://www.w3.org/2000/svg" viewBox="0 0 520 390" role="img" aria-label="Exact-fit line b1+2b2=1; zero-initialized GD travels on the row space toward (1/5,2/5)." style="font-family:system-ui,sans-serif;font-size:18px;fill:#18384e"><title>Exact-fit line b1+2b2=1; zero-initialized GD travels on the row space toward (1/5,2/5).</title><text x="65" y="26" font-weight="650">GD follows the row space</text><rect x="65" y="55" width="250" height="250" fill="#fffdf8" stroke="#cfd7d8"/><line x1="100.71428571428572" y1="55" x2="100.71428571428572" y2="305" stroke="#e1e5e3"/><text x="100.71428571428572" y="329" text-anchor="middle">0</text><line x1="190" y1="55" x2="190" y2="305" stroke="#e1e5e3"/><text x="190" y="329" text-anchor="middle">0.5</text><line x1="279.28571428571433" y1="55" x2="279.28571428571433" y2="305" stroke="#e1e5e3"/><text x="279.28571428571433" y="329" text-anchor="middle">1</text><line x1="65" y1="269.2857142857143" x2="315" y2="269.2857142857143" stroke="#e1e5e3"/><text x="55" y="274.2857142857143" text-anchor="end">0</text><line x1="65" y1="180" x2="315" y2="180" stroke="#e1e5e3"/><text x="55" y="185" text-anchor="end">0.5</text><line x1="65" y1="90.7142857142857" x2="315" y2="90.7142857142857" stroke="#e1e5e3"/><text x="55" y="95.7142857142857" text-anchor="end">1</text><text x="190" y="360" text-anchor="middle">Coefficient b₁</text><text transform="translate(18 180) rotate(-90)" text-anchor="middle">Coefficient b₂</text><line x1="65" y1="162.14285714285714" x2="315" y2="287.14285714285717" stroke="#85456d" stroke-width="3"/><line x1="82.85714285714286" y1="305" x2="207.85714285714286" y2="54.99999999999997" stroke="#087e83" stroke-width="2" stroke-dasharray="6 3"/><circle cx="100.71428571428572" cy="269.2857142857143" r="4" fill="#a16b12"/><circle cx="118.57142857142858" cy="233.57142857142856" r="4" fill="#a16b12"/><circle cx="127.50000000000001" cy="215.71428571428572" r="4" fill="#a16b12"/><circle cx="131.96428571428572" cy="206.78571428571428" r="4" fill="#a16b12"/><circle cx="134.19642857142856" cy="202.32142857142856" r="4" fill="#a16b12"/><circle cx="136.42857142857144" cy="197.85714285714283" r="6" fill="#087e83"/><text x="141.7857142857143" y="217.85714285714283" >Minimum norm (1/5, 2/5)</text><text x="211.42857142857144" y="265.7142857142857" >Exact fits</text><text x="156.07142857142858" y="108.57142857142856" >Row space</text></svg>
