<svg xmlns="http://www.w3.org/2000/svg" viewBox="0 0 520 365" role="img" aria-label="Separate density from communities" style="font-family:system-ui,sans-serif;font-size:18px;fill:#18384e"><title>Separate density from communities</title><text x="35" y="35" font-weight="650">Two population directions</text><text x="35" y="82" font-weight="650">Constant direction 1</text><rect x="37" y="104" width="46" height="46" fill="#e1f0ed" stroke="#087e83"/><text x="60" y="134" text-anchor="middle">+1</text><rect x="117" y="104" width="46" height="46" fill="#e1f0ed" stroke="#087e83"/><text x="140" y="134" text-anchor="middle">+1</text><rect x="197" y="104" width="46" height="46" fill="#e1f0ed" stroke="#087e83"/><text x="220" y="134" text-anchor="middle">+1</text><rect x="277" y="104" width="46" height="46" fill="#e1f0ed" stroke="#087e83"/><text x="300" y="134" text-anchor="middle">+1</text><rect x="357" y="104" width="46" height="46" fill="#e1f0ed" stroke="#087e83"/><text x="380" y="134" text-anchor="middle">+1</text><rect x="437" y="104" width="46" height="46" fill="#e1f0ed" stroke="#087e83"/><text x="460" y="134" text-anchor="middle">+1</text><text x="35" y="200" font-weight="650">Community direction θ</text><rect x="37" y="222" width="46" height="46" fill="#e1f0ed" stroke="#087e83"/><text x="60" y="252" text-anchor="middle">+1</text><rect x="117" y="222" width="46" height="46" fill="#e1f0ed" stroke="#087e83"/><text x="140" y="252" text-anchor="middle">+1</text><rect x="197" y="222" width="46" height="46" fill="#e1f0ed" stroke="#087e83"/><text x="220" y="252" text-anchor="middle">+1</text><rect x="277" y="222" width="46" height="46" fill="#f4e6ef" stroke="#85456d"/><text x="300" y="252" text-anchor="middle">−1</text><rect x="357" y="222" width="46" height="46" fill="#f4e6ef" stroke="#85456d"/><text x="380" y="252" text-anchor="middle">−1</text><rect x="437" y="222" width="46" height="46" fill="#f4e6ef" stroke="#85456d"/><text x="460" y="252" text-anchor="middle">−1</text></svg>
